# xmcd CD database file
#
# Track frame offsets:
#	150
#	17282
#	34353
#	38980
#	57808
#	78138
#	101275
#	121275
#	143115
#	147393
#	163010
#	168338
#	188550
#	208923
#	240307
#
# Disc length: 3211 seconds
#
# Revision: 0
# Processed by: cddbd v1.5.1PL2 Copyright (c) Steve Scherf et al.
# Submitted via: CDex 1.51
#
DISCID=be0c890f
DTITLE=HI-D - ME II YOU
DYEAR=2005
DGENRE=R&B
TTITLE0=Don't Stop
TTITLE1=Light Up
TTITLE2=Slow It Down (Interlude)
TTITLE3=スナオナキモチ
TTITLE4=Be With You
TTITLE5=My Life
TTITLE6=Baby Girl
TTITLE7=Better Man ｆeat.leo
TTITLE8=Live On Direct (Interlude)
TTITLE9=Can I Getta ｆeat.miho Brown
TTITLE10=Drop Drops (Interlude)
TTITLE11=Vanilla
TTITLE12=Loveholic
TTITLE13=Proceed
TTITLE14=エンハンスド - 期間限定スペシャルサイト(「Be With You」〜「My Life」PVストリーミング)
EXTD=YEAR: 2005
EXTT0=
EXTT1=
EXTT2=
EXTT3=
EXTT4=
EXTT5=
EXTT6=
EXTT7=
EXTT8=
EXTT9=
EXTT10=
EXTT11=
EXTT12=
EXTT13=
EXTT14=
PLAYORDER=
